name rise34.3697peak60.0498fall86.3158.mot
datacolumns 19
datarows 29
range 15.14161000000000 15.18827800000000
endheader
time	ground_force1_vx	ground_force1_vy	ground_force1_vz	ground_force1_px	ground_force1_py	ground_force1_pz	ground_force2_vx	ground_force2_vy	ground_force2_vz	ground_force2_px	ground_force2_py	ground_force2_pz	ground_torque1_x	ground_torque1_y	ground_torque1_z	ground_torque2_x	ground_torque2_y	ground_torque2_z	
15.14161000000000	-47.46135600000000	822.92752599999994	64.76676700000000	0.19260500000000	0.00000000000000	0.11971000000000	-9.70965500000000	55.93759000000000	7.94467700000000	0.44269900000000	0.00000000000000	-0.06546100000000	0.00000000000000	33.82812200000000	0.00000000000000	0.00000000000000	6.43571500000000	0.00000000000000	
15.14328000000000	-47.22837400000000	820.05572199999995	64.60165000000001	0.19212500000000	0.00000000000000	0.11963400000000	-10.16992200000000	61.51814200000000	8.40286700000000	0.44407200000000	0.00000000000000	-0.06610300000000	0.00000000000000	33.61063400000000	0.00000000000000	0.00000000000000	6.83465200000000	0.00000000000000	
15.14494400000000	-47.00236300000000	817.02985500000000	64.40439400000000	0.19165300000000	0.00000000000000	0.11955400000000	-10.47843300000000	66.84748200000000	8.75488200000000	0.44541700000000	0.00000000000000	-0.06670800000000	0.00000000000000	33.38598100000000	0.00000000000000	0.00000000000000	7.15357500000000	0.00000000000000	
15.14661100000000	-46.78478400000000	813.85234900000000	64.17488700000000	0.19118900000000	0.00000000000000	0.11946800000000	-10.63566100000000	71.91605500000000	9.00094400000000	0.44673400000000	0.00000000000000	-0.06728200000000	0.00000000000000	33.15453800000000	0.00000000000000	0.00000000000000	7.39253300000000	0.00000000000000	
15.14827400000000	-46.57708400000000	810.52574000000004	63.91308400000000	0.19073300000000	0.00000000000000	0.11937600000000	-10.64779900000000	76.73705900000000	9.14565700000000	0.44802500000000	0.00000000000000	-0.06782700000000	0.00000000000000	32.91669000000000	0.00000000000000	0.00000000000000	7.55503900000000	0.00000000000000	
15.14994200000000	-46.38068700000000	807.05265599999996	63.61900400000000	0.19028300000000	0.00000000000000	0.11927900000000	-10.52543600000000	81.34215399999999	9.19700800000000	0.44929000000000	0.00000000000000	-0.06834600000000	0.00000000000000	32.67283000000000	0.00000000000000	0.00000000000000	7.64730000000000	0.00000000000000	
15.15160600000000	-46.19698800000000	803.43580399999996	63.29273100000000	0.18984200000000	0.00000000000000	0.11917600000000	-10.28211200000000	85.77639700000000	9.16526400000000	0.45053000000000	0.00000000000000	-0.06884300000000	0.00000000000000	32.42335600000000	0.00000000000000	0.00000000000000	7.67735500000000	0.00000000000000	
15.15327700000000	-46.02734600000000	799.67795100000001	62.93441200000000	0.18940700000000	0.00000000000000	0.11906700000000	-9.93287900000000	90.09296399999999	9.06188100000000	0.45174400000000	0.00000000000000	-0.06932000000000	0.00000000000000	32.16867400000000	0.00000000000000	0.00000000000000	7.65421200000000	0.00000000000000	
15.15494600000000	-45.87308100000000	795.78191500000003	62.54425600000000	0.18897900000000	0.00000000000000	0.11895300000000	-9.49299300000000	94.34810899999999	8.89849100000000	0.45293100000000	0.00000000000000	-0.06977900000000	0.00000000000000	31.90919000000000	0.00000000000000	0.00000000000000	7.58705100000000	0.00000000000000	
15.15661200000000	-45.73546300000000	791.75054000000000	62.12253700000000	0.18855800000000	0.00000000000000	0.11883200000000	-8.97681400000000	98.59674500000000	8.68606500000000	0.45409200000000	0.00000000000000	-0.07022100000000	0.00000000000000	31.64531400000000	0.00000000000000	0.00000000000000	7.48455500000000	0.00000000000000	
15.15827900000000	-45.61570900000000	787.58669199999997	61.66958500000000	0.18814300000000	0.00000000000000	0.11870500000000	-8.39697400000000	102.88886400000000	8.43425800000000	0.45522600000000	0.00000000000000	-0.07064800000000	0.00000000000000	31.37745200000000	0.00000000000000	0.00000000000000	7.35438200000000	0.00000000000000	
15.15993800000000	-45.51497700000000	783.29323499999998	61.18579200000000	0.18773500000000	0.00000000000000	0.11857200000000	-7.76380900000000	107.26694100000000	8.15097200000000	0.45633200000000	0.00000000000000	-0.07106100000000	0.00000000000000	31.10600900000000	0.00000000000000	0.00000000000000	7.20281700000000	0.00000000000000	
15.16161300000000	-45.43435600000000	778.87302299999999	60.67160700000000	0.18733200000000	0.00000000000000	0.11843300000000	-7.08508400000000	111.76433800000000	7.84213200000000	0.45741000000000	0.00000000000000	-0.07146300000000	0.00000000000000	30.83138700000000	0.00000000000000	0.00000000000000	7.03457600000000	0.00000000000000	
15.16327500000000	-45.37486200000000	774.32888600000001	60.12753100000000	0.18693500000000	0.00000000000000	0.11828800000000	-6.36595300000000	116.40465500000001	7.51164600000000	0.45845800000000	0.00000000000000	-0.07185300000000	0.00000000000000	30.55398000000000	0.00000000000000	0.00000000000000	6.85277400000000	0.00000000000000	
15.16494900000000	-45.33743200000000	769.66361199999994	59.55412100000000	0.18654300000000	0.00000000000000	0.11813700000000	-5.60912300000000	121.20189800000000	7.16152200000000	0.45947500000000	0.00000000000000	-0.07223300000000	0.00000000000000	30.27417400000000	0.00000000000000	0.00000000000000	6.65900800000000	0.00000000000000	
15.16660500000000	-45.32291700000000	764.87994000000003	58.95198500000000	0.18615500000000	0.00000000000000	0.11797900000000	-4.81518100000000	126.16130800000001	6.79211600000000	0.46046100000000	0.00000000000000	-0.07260300000000	0.00000000000000	29.99234500000000	0.00000000000000	0.00000000000000	6.45354300000000	0.00000000000000	
15.16827500000000	-45.33207400000000	759.98054800000000	58.32177900000000	0.18577200000000	0.00000000000000	0.11781500000000	-3.98301800000000	131.28066699999999	6.40244400000000	0.46141500000000	0.00000000000000	-0.07296400000000	0.00000000000000	29.70885800000000	0.00000000000000	0.00000000000000	6.23556700000000	0.00000000000000	
15.16994600000000	-45.36556400000000	754.96803799999998	57.66420600000000	0.18539200000000	0.00000000000000	0.11764500000000	-3.11030600000000	136.55188799999999	5.99055100000000	0.46233500000000	0.00000000000000	-0.07331700000000	0.00000000000000	29.42406500000000	0.00000000000000	0.00000000000000	6.00347600000000	0.00000000000000	
15.17161300000000	-45.42394400000000	749.84492999999998	56.98001200000000	0.18501600000000	0.00000000000000	0.11746900000000	-2.19398500000000	141.96272700000000	5.55388000000000	0.46322000000000	0.00000000000000	-0.07366200000000	0.00000000000000	29.13830300000000	0.00000000000000	0.00000000000000	5.75516800000000	0.00000000000000	
15.17327600000000	-45.50766000000000	744.61365000000001	56.26998600000000	0.18464200000000	0.00000000000000	0.11728700000000	-1.23071700000000	147.49845600000000	5.08962000000000	0.46407000000000	0.00000000000000	-0.07400000000000	0.00000000000000	28.85189100000000	0.00000000000000	0.00000000000000	5.48832400000000	0.00000000000000	
15.17494000000000	-45.61704600000000	739.27652300000000	55.53495400000000	0.18427000000000	0.00000000000000	0.11709900000000	-0.21728300000000	153.14339799999999	4.59501200000000	0.46488300000000	0.00000000000000	-0.07433100000000	0.00000000000000	28.56513200000000	0.00000000000000	0.00000000000000	5.20065500000000	0.00000000000000	
15.17661200000000	-45.75231300000000	733.83576400000004	54.77578200000000	0.18390000000000	0.00000000000000	0.11690500000000	0.84909700000000	158.88221100000001	4.06759700000000	0.46565800000000	0.00000000000000	-0.07465500000000	0.00000000000000	28.27830900000000	0.00000000000000	0.00000000000000	4.89009900000000	0.00000000000000	
15.17827300000000	-45.91355200000000	728.29347299999995	53.99336400000000	0.18353000000000	0.00000000000000	0.11670500000000	1.97052900000000	164.70090500000001	3.50540300000000	0.46639500000000	0.00000000000000	-0.07497200000000	0.00000000000000	27.99168400000000	0.00000000000000	0.00000000000000	4.55497900000000	0.00000000000000	
15.17994500000000	-46.10072400000000	722.65162699999996	53.18863100000000	0.18316000000000	0.00000000000000	0.11650000000000	3.14829200000000	170.58754500000001	2.90706100000000	0.46709200000000	0.00000000000000	-0.07528300000000	0.00000000000000	27.70549900000000	0.00000000000000	0.00000000000000	4.19409400000000	0.00000000000000	
15.18160600000000	-46.31365900000000	716.91207799999995	52.36253700000000	0.18279000000000	0.00000000000000	0.11628800000000	4.38277700000000	176.53265900000000	2.27186000000000	0.46774900000000	0.00000000000000	-0.07558900000000	0.00000000000000	27.41997300000000	0.00000000000000	0.00000000000000	3.80677000000000	0.00000000000000	
15.18327200000000	-46.55205300000000	711.07654800000000	51.51606700000000	0.18241900000000	0.00000000000000	0.11607200000000	5.67347900000000	182.52938499999999	1.59975500000000	0.46836400000000	0.00000000000000	-0.07588800000000	0.00000000000000	27.13529900000000	0.00000000000000	0.00000000000000	3.39286400000000	0.00000000000000	
15.18494800000000	-46.81546400000000	705.14662699999997	50.65022600000000	0.18204600000000	0.00000000000000	0.11584900000000	7.01906400000000	188.57338200000001	0.89132000000000	0.46893700000000	0.00000000000000	-0.07618100000000	0.00000000000000	26.85165100000000	0.00000000000000	0.00000000000000	2.95273400000000	0.00000000000000	
15.18661100000000	-47.10331300000000	699.12377300000003	49.76603900000000	0.18167000000000	0.00000000000000	0.11562200000000	8.41746200000000	194.66257600000000	0.14768100000000	0.46946800000000	0.00000000000000	-0.07646800000000	0.00000000000000	26.56917300000000	0.00000000000000	0.00000000000000	2.48718100000000	0.00000000000000	
15.18827800000000	-47.41487900000000	693.00931400000002	48.86455200000000	0.18129100000000	0.00000000000000	0.11539000000000	9.86599600000000	200.79678200000001	-0.62958100000000	0.46995500000000	0.00000000000000	-0.07675000000000	0.00000000000000	26.28798800000000	0.00000000000000	0.00000000000000	1.99737500000000	0.00000000000000	
